<svg width="31" height="31" viewBox="0 0 31 31" fill="none" xmlns="http://www.w3.org/2000/svg">
<path d="M19.6667 19.6667L28 28M12.7222 22.4444C11.4455 22.4444 10.1812 22.193 9.00169 21.7044C7.82213 21.2158 6.75036 20.4997 5.84757 19.5969C4.94478 18.6941 4.22865 17.6223 3.74006 16.4428C3.25147 15.2632 3 13.999 3 12.7222C3 11.4455 3.25147 10.1812 3.74006 9.00169C4.22865 7.82213 4.94478 6.75036 5.84757 5.84757C6.75036 4.94478 7.82213 4.22865 9.00169 3.74006C10.1812 3.25147 11.4455 3 12.7222 3C15.3007 3 17.7736 4.0243 19.5969 5.84757C21.4201 7.67084 22.4444 10.1437 22.4444 12.7222C22.4444 15.3007 21.4201 17.7736 19.5969 19.5969C17.7736 21.4201 15.3007 22.4444 12.7222 22.4444Z" stroke="#000" stroke-width="4.5" stroke-linecap="round" stroke-linejoin="round"/>
</svg>
