<svg width="264" height="54" viewBox="0 0 264 54" fill="none" xmlns="http://www.w3.org/2000/svg">
<path d="M0 24C0 10.7452 10.7256 0 23.9564 0H239.564C252.794 0 263.52 10.7452 263.52 24V30C263.52 43.2548 252.794 54 239.564 54H23.9564C10.7256 54 0 43.2548 0 30V24Z" fill="white"/>
<path d="M28.08 17.28H31.8989V20.962H28.08V17.28ZM31.8989 20.962H35.7179V24.6439H31.8989V20.962ZM35.7179 24.6439H39.5368V28.3259H35.7179V24.6439ZM31.8989 28.3259H35.7179V32.0078H31.8989V28.3259ZM28.08 32.0078H31.8989V35.64H28.08V32.0078Z" fill="black"/>
<path d="M51.7935 17.28H67.0692V20.962H55.6124V32.0078H67.0692V35.64H51.7935V17.28ZM67.0692 20.962H70.8882V32.0078H67.0692V20.962Z" fill="black"/>
<path d="M74.1136 17.28H93.2083V20.962H77.9325V24.6439H89.3893V28.3259H77.9325V32.0078H93.2083V35.64H74.1136V17.28Z" fill="black"/>
<path d="M96.4337 17.28H100.253V28.3259H96.4337V17.28ZM111.709 17.28H115.528V28.3259H111.709V17.28ZM100.253 28.3259H104.072V32.0078H100.253V28.3259ZM107.891 28.3259H111.709V32.0078H107.891V28.3259ZM104.072 32.0078H107.891V35.64H104.072V32.0078Z" fill="black"/>
<path d="M127.785 17.28H131.604V28.3259H135.423V32.0078H131.604V35.64H127.785V17.28ZM143.061 17.28H146.88V35.64H143.061V32.0078H139.242V28.3259H143.061V17.28ZM135.423 24.6439H139.242V28.3259H135.423V24.6439Z" fill="black"/>
<path d="M150.105 17.28H169.2V20.962H153.924V24.6439H165.381V28.3259H153.924V32.0078H169.2V35.64H150.105V17.28Z" fill="black"/>
<path d="M176.244 17.28H187.701V20.962H176.244V17.28ZM172.425 20.962H176.244V24.6439H187.701V20.962H191.52V35.64H187.701V28.3259H176.244V35.64H172.425V20.962Z" fill="black"/>
<path d="M194.745 17.28H210.021V20.962H198.564V24.6439H210.021V28.3259H198.564V35.64H194.745V17.28ZM210.021 20.962H213.84V24.6439H210.021V20.962ZM210.021 28.3259H213.84V35.64H210.021V28.3259Z" fill="black"/>
<rect x="222.48" y="15.12" width="16.2" height="23.76" fill="black"/>
</svg>
