<svg width="203" height="19" viewBox="0 0 203 19" fill="none" xmlns="http://www.w3.org/2000/svg">
<rect x="192" width="11" height="19" fill="white"/>
<path d="M0.586914 0.261719H4.34473V4.01953H0.586914V0.261719ZM4.34473 4.01953H8.10254V7.77734H4.34473V4.01953ZM8.10254 7.77734H11.8604V11.5352H8.10254V7.77734ZM4.34473 11.5352H8.10254V15.293H4.34473V11.5352ZM0.586914 15.293H4.34473V19H0.586914V15.293ZM23.9209 0.261719H38.9521V4.01953H27.6787V15.293H38.9521V19H23.9209V0.261719ZM38.9521 4.01953H42.71V15.293H38.9521V4.01953ZM45.8838 0.261719H64.6729V4.01953H49.6416V7.77734H60.915V11.5352H49.6416V15.293H64.6729V19H45.8838V0.261719ZM67.8467 0.261719H71.6045V11.5352H67.8467V0.261719ZM82.8779 0.261719H86.6357V11.5352H82.8779V0.261719ZM71.6045 11.5352H75.3623V15.293H71.6045V11.5352ZM79.1201 11.5352H82.8779V15.293H79.1201V11.5352ZM75.3623 15.293H79.1201V19H75.3623V15.293ZM98.6963 0.261719H102.454V11.5352H106.212V15.293H102.454V19H98.6963V0.261719ZM113.728 0.261719H117.485V19H113.728V15.293H109.97V11.5352H113.728V0.261719ZM106.212 7.77734H109.97V11.5352H106.212V7.77734ZM120.659 0.261719H139.448V4.01953H124.417V7.77734H135.69V11.5352H124.417V15.293H139.448V19H120.659V0.261719ZM146.38 0.261719H157.653V4.01953H146.38V0.261719ZM142.622 4.01953H146.38V7.77734H157.653V4.01953H161.411V19H157.653V11.5352H146.38V19H142.622V4.01953ZM164.585 0.261719H179.616V4.01953H168.343V7.77734H179.616V11.5352H168.343V19H164.585V0.261719ZM179.616 4.01953H183.374V7.77734H179.616V4.01953ZM179.616 11.5352H183.374V19H179.616V11.5352Z" fill="white"/>
</svg>
