<svg width="19" height="19" viewBox="0 0 19 19" fill="none" xmlns="http://www.w3.org/2000/svg">
<path d="M3.74186 0H11.2256V1.87093H3.74186V0ZM1.87093 3.74186V1.87093H3.74186V3.74186H1.87093ZM1.87093 11.2256H0V3.74186H1.87093V11.2256ZM3.74186 13.0965H1.87093V11.2256H3.74186V13.0965ZM11.2256 13.0965V14.9674H3.74186V13.0965H11.2256ZM13.0965 11.2256H11.2256V13.0965H13.0965V14.9674H14.9674V16.8384H16.8384V18.7093H18.7093V16.8384H16.8384V14.9674H14.9674V13.0965H13.0965V11.2256ZM13.0965 3.74186H14.9674V11.2256H13.0965V3.74186ZM13.0965 3.74186V1.87093H11.2256V3.74186H13.0965Z" fill="black"/>
</svg>
