<svg width="37" height="37" viewBox="0 0 37 37" fill="none" xmlns="http://www.w3.org/2000/svg">
<rect width="37" height="37" fill="black"/>
<path fill-rule="evenodd" clip-rule="evenodd" d="M25.0365 6H13.1092L13.1092 6.00001L13.1092 8.32727V13.1273H15.4365L15.4365 8.32727H22.7087V13.1273H25.036V8.32727H25.0365V6ZM31 18.0727H27.3638V10.9454H25.0366V18.0727H13.1091L13.1091 10.9454H10.7819L10.7819 18.0727H7V18.0727V20.4V22.8727V25.2L9.32727 25.2H28.6727H30.9999L31 25.2V22.8727H30.9999V20.4H31V18.0727ZM9.32727 22.8727L9.32727 20.4H28.6727V22.8727H9.32727ZM22.7093 27.6727H15.4366V30H22.7093V27.6727Z" fill="white"/>
</svg>
